PathFileType	4	(X/Y/Z)	F:\shared\Remotetake0125-Body25.trc
DataRate	CameraRate	NumFrames	NumMarkers	Units	OrigDataRate	OrigDataStartFrame	OrigNumFrames	useTimeStamp
60		60		7		79		mm		60		1		1799		1																					
Frame#	Time	Timestamp	HeadTop			LHeadFront			LHeadBack			RHeadFront			RHeadBack			C7			T10			CLAV			STRN			LShoulderFront			LShoulderBack			LUArmHigh			LElbow			LElbowIn			LForearm			LWristIn			LWristOut			LHandIn			LHandOut			RShoulderFront			RShoulderBack			RUArmHigh			RElbow			RElbowIn			RForearm			RWristIn			RWristOut			RHandIn			RHandOut			WaistLFront			WaistLSide			WaistLBack			WaistRFront			WaistRSide			WaistRBack			LThigh			LKnee			LKneeIn			LShin			LAnkleOut			LHeel			LMT5			LMT1			LToe			RThigh			RKnee			RKneeIn			RShin			RAnkleOut			RHeel			RMT5			RMT1			RToe			C7			C7			STRN			STRN			LUArmHigh			LForearm			RUArmHigh			RForearm			WaistLFront			WaistLFront			WaistLSide			WaistLSide			WaistLBack			WaistLBack			WaistRFront			WaistRFront			WaistRSide			WaistRSide			WaistRBack			WaistRBack			LThigh			LShin			RThigh			RShin			LShoulderFront			RShoulderFront			
			X1	Y1	Z1	X2	Y2	Z2	X3	Y3	Z3	X4	Y4	Z4	X5	Y5	Z5	X6	Y6	Z6	X7	Y7	Z7	X8	Y8	Z8	X9	Y9	Z9	X10	Y10	Z10	X11	Y11	Z11	X12	Y12	Z12	X13	Y13	Z13	X14	Y14	Z14	X15	Y15	Z15	X16	Y16	Z16	X17	Y17	Z17	X18	Y18	Z18	X19	Y19	Z19	X20	Y20	Z20	X21	Y21	Z21	X22	Y22	Z22	X23	Y23	Z23	X24	Y24	Z24	X25	Y25	Z25	X26	Y26	Z26	X27	Y27	Z27	X28	Y28	Z28	X29	Y29	Z29	X30	Y30	Z30	X31	Y31	Z31	X32	Y32	Z32	X33	Y33	Z33	X34	Y34	Z34	X35	Y35	Z35	X36	Y36	Z36	X37	Y37	Z37	X38	Y38	Z38	X39	Y39	Z39	X40	Y40	Z40	X41	Y41	Z41	X42	Y42	Z42	X43	Y43	Z43	X44	Y44	Z44	X45	Y45	Z45	X46	Y46	Z46	X47	Y47	Z47	X48	Y48	Z48	X49	Y49	Z49	X50	Y50	Z50	X51	Y51	Z51	X52	Y52	Z52	X53	Y53	Z53	X54	Y54	Z54	X55	Y55	Z55	X56	Y56	Z56	X57	Y57	Z57	X58	Y58	Z58	X59	Y59	Z59	X60	Y60	Z60	X61	Y61	Z61	X62	Y62	Z62	X63	Y63	Z63	X64	Y64	Z64	X65	Y65	Z65	X66	Y66	Z66	X67	Y67	Z67	X68	Y68	Z68	X69	Y69	Z69	X70	Y70	Z70	X71	Y71	Z71	X72	Y72	Z72	X73	Y73	Z73	X74	Y74	Z74	X75	Y75	Z75	X76	Y76	Z76	X77	Y77	Z77	X78	Y78	Z78	X79	Y79	Z79	

1	0.000	1702448211606	479.699524	-413.563324	1695.393921	367.041809	-438.793457	1631.436157	425.057312	-546.868042	1588.063477	543.003296	-422.441498	1636.372559	477.250336	-541.626038	1589.690796	484.730133	-553.845398	1382.807861	492.492706	-564.859131	1081.761841	480.962189	-327.414307	1284.197876	494.119598	-260.354279	1090.612915	336.405914	-373.502838	1326.922119	283.633301	-511.368835	1345.545288	219.368378	-440.267548	1221.716064	218.407715	-407.045807	1087.161743	267.639404	-502.818542	1047.516602																606.426758	-387.475586	1340.818115	629.605835	-533.659790	1334.395508	714.652283	-429.988647	1202.602173																						344.715424	-302.288269	925.049988	293.432495	-407.987305	925.729553	364.460907	-528.450439	939.992798	602.458374	-321.552063	922.887695				548.860474	-532.166931	936.652954	288.513519	-387.594910	610.645142																									623.590515	-348.043457	647.966248	632.867615	-477.225708	451.447998				626.060608	-479.986267	205.732895	605.329407	-514.929382	64.584641	540.121826	-555.039062	81.149368	667.836731	-411.367584	21.530998				617.709534	-365.690674	44.689621																																																																															
2	0.016	1702448211647	479.663116	-413.409515	1695.357422	367.011414	-438.755707	1631.439819	425.092621	-546.788818	1588.120483	542.984314	-422.296600	1636.428345	477.322052	-541.523804	1589.682983	484.774323	-553.808899	1382.795166	492.487640	-564.928284	1081.858521	480.903992	-327.344757	1284.067993	494.030365	-260.349426	1090.657349	336.437408	-373.498260	1327.005127	283.555328	-511.378662	1345.622437	219.375732	-440.241760	1221.716064	218.376740	-407.063202	1087.202148	267.573181	-502.865997	1047.529419																606.436523	-387.438293	1340.831543	629.567139	-533.653076	1334.418213	714.656067	-430.002106	1202.609497																						344.681183	-302.177399	925.063843	293.444000	-407.909332	925.835999	364.425201	-528.193237	940.116699	602.391724	-321.564667	922.930176				548.799500	-531.986023	936.941650	288.487183	-387.611694	610.731140																									623.880371	-347.530334	648.233459	633.075134	-476.801056	451.820374				626.113708	-479.507965	206.198685	605.406372	-514.768250	64.634346	540.170349	-554.678101	81.227097	667.759399	-411.053070	21.945869				617.730347	-365.373108	44.941776																																																																															
3	0.033	1702448211657	479.583038	-413.239197	1695.366089	367.021179	-438.691742	1631.445679	425.143951	-546.678284	1588.123291	542.954041	-422.249817	1636.575195	477.271851	-541.438110	1589.708008	484.741272	-553.721252	1382.757690	492.469330	-564.891602	1081.850464	480.830658	-327.255432	1284.096558	494.098907	-260.348206	1090.607422	336.380554	-373.421600	1326.922729	283.629059	-511.374390	1345.661743	219.343887	-440.247040	1221.764160	218.327179	-407.086792	1087.235352	267.544861	-502.891022	1047.445068																606.468262	-387.379791	1340.861206	629.565796	-533.581909	1334.421265	714.727234	-430.011047	1202.555786																						344.593079	-302.196777	925.178955	293.488068	-408.072510	925.892212	364.441040	-528.219849	940.104065	602.458984	-321.573700	922.965088				548.782043	-531.955505	936.922119	288.502563	-387.621155	610.797241																									623.824768	-347.531769	648.165405	633.009338	-476.861206	451.727234				626.122925	-479.432404	206.029419	605.425232	-514.825195	64.561432	540.162781	-554.665283	81.276993	667.767090	-411.038818	22.020847				617.704468	-365.377991	44.925411																																																																															
4	0.050	1702448211660	479.542267	-413.048584	1695.405273	366.964844	-438.603790	1631.431763	425.085663	-546.562073	1588.156128	542.845581	-421.938049	1636.466553	477.340118	-541.294617	1589.743164	484.761444	-553.574280	1382.845581	492.480499	-564.794189	1081.795654	480.787262	-327.195190	1284.078247	493.949677	-260.343597	1090.513306	336.296478	-373.281219	1326.870361	283.614532	-511.260681	1345.628174	219.295029	-440.241364	1221.737671	218.248779	-407.033844	1087.267700	267.552429	-502.819000	1047.526611																606.403748	-387.240631	1340.838989	629.577637	-533.408813	1334.413330	714.716370	-429.899323	1202.597778																						344.507935	-302.224182	925.090149	293.402771	-408.174530	925.810120	364.355286	-528.265686	940.153503	602.354492	-321.542053	922.850159				548.756287	-531.945740	936.906799	288.424286	-387.641052	610.781250																									623.764771	-347.503906	648.141785	632.951782	-476.797455	451.730103				626.122559	-479.451752	206.152817	605.381714	-514.758179	64.581573	540.144653	-554.614868	81.140839	667.806763	-410.958466	21.805540				617.692322	-365.369934	44.938152																																																																															
5	0.066	1702448211672	479.495026	-412.813232	1695.365479	366.973114	-438.465240	1631.471191	425.100983	-546.365112	1588.191406	542.774963	-421.666168	1636.356567	477.335144	-541.091064	1589.691284	484.797150	-553.441895	1382.912598	492.498260	-564.775696	1081.949951	480.762909	-327.115082	1283.958984	493.915863	-260.352600	1090.470459	336.246246	-373.236816	1326.861328	283.607239	-511.153473	1345.635254	219.223999	-440.236053	1221.727173	218.279160	-407.032562	1087.217896	267.520874	-502.849609	1047.520508																606.347656	-387.223511	1340.674316	629.609680	-533.245789	1334.439087	714.584412	-429.787018	1202.562988																						344.502197	-302.242096	924.987183	293.391571	-408.057281	925.733582	364.419769	-528.520081	939.918335	602.296326	-321.556122	922.837097				548.845337	-532.159302	936.678528	288.476318	-387.643127	610.633057																									623.424438	-347.847046	648.047424	632.747559	-477.202057	451.372894				626.031982	-479.944946	205.693039	605.278931	-514.948303	64.531960	540.106812	-555.038086	81.158669	667.737915	-411.299408	21.320087				617.764709	-365.674530	44.604752																																																																															
6	0.083	1702448211689	479.501282	-412.675537	1695.389771	367.004944	-438.301971	1631.460815	425.132202	-546.147278	1588.235718	542.810974	-421.466858	1636.299438	477.420349	-540.902405	1589.703491	484.784485	-553.306946	1382.886230	492.494019	-564.778381	1082.083618	480.716461	-327.033325	1284.007080	493.824463	-260.293304	1090.391235	336.213470	-373.158386	1326.856812	283.607300	-511.067993	1345.679321	219.241226	-440.251648	1221.780029	218.231247	-407.009918	1087.181030	267.447235	-502.888458	1047.604858																606.337524	-387.081177	1340.719604	629.663879	-533.152832	1334.470703	714.593933	-429.685364	1202.557617																						344.443878	-302.240540	925.011780	293.355164	-408.019958	925.764954	364.426270	-528.254272	940.127197	602.237488	-321.570190	922.791809				548.744202	-531.932434	936.870056	288.353241	-387.660553	610.691772																									623.456543	-347.864349	648.054993	632.772949	-477.152100	451.401154				625.980957	-480.012848	205.788483	605.305359	-514.990967	64.569046	540.096741	-555.030396	81.158104	667.795532	-411.302155	21.455856				617.767822	-365.683105	44.635757																																																																															
7	0.100	1702448211705	479.494171	-412.472778	1695.399658	366.958740	-438.179108	1631.485107	425.241455	-546.008667	1588.310181	542.775940	-421.272644	1636.342041	477.432983	-540.692810	1589.724243	484.764160	-553.238464	1382.948120	492.480225	-564.708740	1082.128662	480.627625	-326.955109	1283.976440	493.720642	-260.276581	1090.427612	336.396362	-373.601593	1326.387573	283.598236	-511.009186	1345.668579	219.230621	-440.231110	1221.746826	218.260208	-407.055115	1087.169556	267.425903	-502.958618	1047.570679																606.336487	-386.907227	1340.778076	629.654541	-533.019653	1334.540283	714.595459	-429.543304	1202.560547																						344.321075	-302.285248	925.053223	293.294983	-408.079285	925.776917	364.361816	-528.290771	940.244873	602.235107	-321.514313	922.796509				548.720764	-531.938538	936.986267	288.298767	-387.753967	610.726624																									623.734131	-347.435760	648.194214	632.922668	-476.766998	451.854706				626.101929	-479.512665	206.282471	605.296082	-514.767456	64.642967	540.163147	-554.644897	81.252159	667.717407	-410.998230	21.810524				617.700134	-365.311066	44.933624																																																																															
